<svg width="40" height="40" xmlns="http://www.w3.org/2000/svg">

 <g>
  <title>background</title>
  <rect fill="none" id="canvas_background" height="42" width="42" y="-1" x="-1"/>
 </g>
 <g>
  <title>Layer 1</title>
  <path stroke="null" id="svg_1" fill="#ffffff" d="m21.595436,16.955882l0,-1.786632c0,-0.806493 0.20706,-1.191309 1.536713,-1.191309l1.626116,0l0,-2.977941l-2.74161,0c-3.411287,0 -4.497753,1.426301 -4.497753,3.953647l0,2.002235l-2.319408,0l0,3.044118l2.319408,0l0,9l4.076535,0l0,-9l2.826585,0l0.378485,-3.044118l-3.20507,0z"/>
  <path stroke="null" opacity="0.5" id="svg_2" fill="#ffffff" d="m20.000001,0c-11.045691,0 -20.000001,8.730452 -20.000001,19.500001s8.95431,19.500001 20.000001,19.500001s20.000001,-8.730452 20.000001,-19.500001s-8.95431,-19.500001 -20.000001,-19.500001zm13.254561,32.423199c-3.540419,3.451908 -8.247615,5.352954 -13.254561,5.352954c-5.006946,0 -9.714143,-1.901046 -13.254561,-5.352954c-3.540419,-3.451908 -5.490209,-8.041425 -5.490209,-12.923198c0,-4.881772 1.949791,-9.471289 5.490209,-12.923198c3.540419,-3.451908 8.247615,-5.352954 13.254561,-5.352954c5.006946,0 9.714143,1.901046 13.254561,5.352954c3.540419,3.451908 5.490209,8.041425 5.490209,12.923198c0,4.881772 -1.949791,9.471289 -5.490209,12.923198z"/>
 </g>
</svg>