<svg width="40" height="40" xmlns="http://www.w3.org/2000/svg">

 <g>
  <title>background</title>
  <rect fill="none" id="canvas_background" height="42" width="42" y="-1" x="-1"/>
 </g>
 <g>
  <title>Layer 1</title>
  <path stroke="null" opacity="0.5" id="svg_1" fill="#ffffff" d="m20,0.146519c-10.990431,0 -19.899944,8.888711 -19.899944,19.853482s8.909513,19.853482 19.899944,19.853482s19.899944,-8.888711 19.899944,-19.853482s-8.909513,-19.853482 -19.899944,-19.853482zm13.188251,33.010941c-3.522706,3.514482 -8.206354,5.449988 -13.188251,5.449988c-4.981897,0 -9.665545,-1.935507 -13.188251,-5.449988c-3.522706,-3.514482 -5.462743,-8.187194 -5.462743,-13.157459c0,-4.970265 1.940036,-9.642977 5.462743,-13.157459c3.522706,-3.514482 8.206354,-5.449988 13.188251,-5.449988c4.981897,0 9.665545,1.935507 13.188251,5.449988c3.522706,3.514482 5.462743,8.187194 5.462743,13.157459c0,4.970265 -1.940036,9.642977 -5.462743,13.157459z"/>
  <path stroke="null" id="svg_2" fill-rule="evenodd" fill="#ffffff" d="m11.621382,9.744124l16.830967,0c1.598966,0 2.86794,1.14466 2.86794,2.593092l0,15.248696c0,1.44825 -1.268874,2.669965 -2.86794,2.669965l-16.830967,0c-1.598565,0 -2.941673,-1.221624 -2.941673,-2.669965l0,-15.248696c0,-1.448432 1.343107,-2.593092 2.941673,-2.593092l0,0zm13.588756,2.268989c-0.561006,0 -1.002597,0.385728 -1.002597,0.893709l0,2.210722c0,0.507981 0.441591,0.88899 1.002597,0.88899l2.559387,0c0.561006,0 1.046275,-0.381009 1.046275,-0.88899l0,-2.210722c0,-0.507981 -0.48527,-0.893709 -1.046275,-0.893709l-2.559387,0l0,0zm3.605663,6.35317l-2.008901,0c0.188237,0.544557 0.29012,1.155188 0.29012,1.766998c0,3.412197 -3.151449,6.181362 -7.038515,6.181362c-3.887267,0 -7.038315,-2.77089 -7.038315,-6.183086c0,-0.61181 0.101682,-1.220716 0.29032,-1.765274l-2.126311,0l0,8.679065c0,0.448715 0.45181,0.850689 0.946797,0.850689l15.768463,0c0.495388,0 0.916342,-0.401974 0.916342,-0.850689l0,-8.679065l0,0zm-8.757296,-2.441432c-2.511602,0 -4.547751,1.787328 -4.547751,3.992241s2.036149,3.992241 4.547751,3.992241c2.511802,0 4.547751,-1.787328 4.547751,-3.992241s-2.035949,-3.992241 -4.547751,-3.992241z" clip-rule="evenodd"/>
 </g>
</svg>