<svg width="40" height="40" xmlns="http://www.w3.org/2000/svg" style="vector-effect: non-scaling-stroke;" stroke="null">

 <g stroke="null">
  <title stroke="null">background</title>
  <rect stroke="null" fill="none" id="canvas_background" height="42" width="42" y="-1" x="-1"/>
 </g>
 <g stroke="null">
  <title stroke="null">Layer 1</title>
  <path stroke="null" id="svg_1" fill="#ffffff" d="m33.247443,11.647952c-0.974008,0.440086 -2.022225,0.7369 -3.122069,0.869713c1.122972,-0.683313 1.984073,-1.765803 2.390175,-3.056999c-1.050402,0.63352 -2.213165,1.093412 -3.451777,1.341544c-0.991217,-1.073605 -2.404106,-1.744979 -3.967508,-1.744979c-3.001513,0 -5.435303,2.473642 -5.435303,5.525273c0,0.432404 0.047895,0.853886 0.140952,1.258987c-4.517749,-0.230733 -8.523501,-2.429958 -11.204503,-5.77285c-0.467928,0.81557 -0.73581,1.7646 -0.73581,2.778139c0,1.916663 0.95953,3.608054 2.418038,4.59864c-0.890602,-0.028969 -1.729121,-0.277657 -2.462199,-0.69155c-0.000546,0.022953 -0.000546,0.046461 -0.000546,0.069877c0,2.676517 1.873806,4.90906 4.360681,5.417542c-0.456091,0.125778 -0.936311,0.193619 -1.432193,0.193619c-0.35065,0 -0.691193,-0.034522 -1.022995,-0.099494c0.692195,2.194875 2.699395,3.792881 5.077642,3.837028c-1.86033,1.482038 -4.203612,2.365541 -6.750765,2.365541c-0.438335,0 -0.871298,-0.026285 -1.296704,-0.077651c2.406201,1.568389 5.26312,2.482435 8.33256,2.482435c9.998762,0 15.465752,-8.418824 15.465752,-15.720174c0,-0.239525 -0.004826,-0.47831 -0.015024,-0.715521c1.061602,-0.777438 1.983344,-1.750995 2.711597,-2.859122z"/>
  <path opacity="0.5" stroke="null" id="svg_2" fill="#ffffff" d="m20,2.443075c-10.040924,0 -18.180709,7.860507 -18.180709,17.556925s8.139785,17.556925 18.180709,17.556925s18.180709,-7.860507 18.180709,-17.556925s-8.139785,-17.556925 -18.180709,-17.556925zm12.048866,29.192392c-3.218366,3.107943 -7.497375,4.81956 -12.048866,4.81956c-4.551491,0 -8.8305,-1.711617 -12.048866,-4.81956c-3.218366,-3.107943 -4.990795,-7.240138 -4.990795,-11.635467c0,-4.395328 1.772429,-8.527523 4.990795,-11.635467c3.218366,-3.107943 7.497375,-4.81956 12.048866,-4.81956c4.551491,0 8.8305,1.711617 12.048866,4.81956c3.218366,3.107943 4.990795,7.240138 4.990795,11.635467c0,4.395328 -1.772429,8.527523 -4.990795,11.635467z"/>
 </g>
</svg>